<svg width="600" height="600" viewBox="0 0 600 600" fill="none" xmlns="http://www.w3.org/2000/svg">
<path d="M300 573.036C438.394 573.036 550.584 508.264 550.584 428.364C550.584 348.464 438.394 283.692 300 283.692C161.606 283.692 49.416 348.464 49.416 428.364C49.416 508.264 161.606 573.036 300 573.036Z" fill="#F5F5F5"/>
<path d="M339.324 529.68C369.253 529.68 393.516 515.674 393.516 498.396C393.516 481.118 369.253 467.112 339.324 467.112C309.395 467.112 285.132 481.118 285.132 498.396C285.132 515.674 309.395 529.68 339.324 529.68Z" fill="#E0E0E0"/>
<path d="M311.16 392.46L166.212 476.16C162.132 478.56 155.016 478.224 150.3 475.5L98.844 445.788C94.14 443.076 93.624 438.96 97.644 436.608L242.592 352.908C246.672 350.508 253.788 350.844 258.504 353.568L309.96 383.28C314.724 385.992 315.24 390.108 311.16 392.46Z" fill="#E0E0E0"/>
<path d="M467.232 421.68L478.656 428.316C478.656 428.316 472.896 409.932 476.088 391.428C476.859 387.072 478.434 382.897 480.732 379.116C481.632 377.244 488.52 365.712 482.46 360.384C476.4 355.056 462.18 365.652 462.816 394.14C463.121 403.47 464.605 412.723 467.232 421.68Z" fill="#8775D2"/>
<path opacity="0.5" d="M467.232 421.68L478.656 428.316C478.656 428.316 472.896 409.932 476.088 391.428C476.859 387.072 478.434 382.897 480.732 379.116C481.632 377.244 488.52 365.712 482.46 360.384C476.4 355.056 462.18 365.652 462.816 394.14C463.121 403.47 464.605 412.723 467.232 421.68Z" fill="black"/>
<path d="M472.548 425.292C472.44 425.291 472.335 425.257 472.248 425.195C472.16 425.133 472.093 425.045 472.056 424.944C472.056 424.824 467.7 412.836 467.928 393.612C468.156 374.388 478.32 363.948 478.428 363.852C478.475 363.804 478.531 363.766 478.593 363.74C478.655 363.714 478.721 363.701 478.788 363.701C478.855 363.701 478.922 363.714 478.983 363.74C479.045 363.766 479.101 363.804 479.148 363.852C479.196 363.9 479.235 363.957 479.261 364.02C479.287 364.083 479.3 364.15 479.3 364.218C479.3 364.286 479.287 364.354 479.261 364.416C479.235 364.479 479.196 364.536 479.148 364.584C479.052 364.68 469.188 374.724 468.96 393.624C468.732 412.524 472.992 424.476 473.028 424.596C473.053 424.659 473.065 424.726 473.063 424.794C473.061 424.862 473.046 424.928 473.018 424.99C472.99 425.051 472.95 425.107 472.9 425.153C472.85 425.198 472.792 425.234 472.728 425.256L472.548 425.292Z" fill="white"/>
<path d="M476.088 426.864L494.952 438C494.952 438 503.592 436.728 502.944 428.592C502.296 420.456 498.78 418.548 503.148 414.972C507.516 411.396 508.644 411.168 508.428 407.664C508.212 404.16 505.872 402.636 504.756 401.256C503.64 399.876 500.568 396.948 502.74 392.736C504.912 388.524 507.852 384.432 503.484 382.488C500.868 381.288 496.476 382.788 493.572 385.872C490.668 388.956 488.256 391.188 485.508 391.872C482.76 392.556 477 392.64 477.192 397.392C477.384 402.144 478.62 403.788 477.468 405.888C475.296 409.86 466.02 412.008 476.088 426.864Z" fill="#8775D2"/>
<path opacity="0.2" d="M476.088 426.864L494.952 438C494.952 438 503.592 436.728 502.944 428.592C502.296 420.456 498.78 418.548 503.148 414.972C507.516 411.396 508.644 411.168 508.428 407.664C508.212 404.16 505.872 402.636 504.756 401.256C503.64 399.876 500.568 396.948 502.74 392.736C504.912 388.524 507.852 384.432 503.484 382.488C500.868 381.288 496.476 382.788 493.572 385.872C490.668 388.956 488.256 391.188 485.508 391.872C482.76 392.556 477 392.64 477.192 397.392C477.384 402.144 478.62 403.788 477.468 405.888C475.296 409.86 466.02 412.008 476.088 426.864Z" fill="black"/>
<path d="M483.768 431.904C483.637 431.904 483.511 431.855 483.415 431.766C483.32 431.677 483.261 431.555 483.252 431.424C483.252 431.148 481.188 403.02 500.724 384.552C500.824 384.458 500.958 384.408 501.095 384.412C501.232 384.417 501.362 384.476 501.456 384.576C501.55 384.676 501.6 384.81 501.596 384.947C501.591 385.084 501.532 385.214 501.432 385.308C482.232 403.428 484.272 431.064 484.296 431.34C484.306 431.478 484.261 431.615 484.171 431.72C484.082 431.826 483.954 431.892 483.816 431.904H483.768Z" fill="white"/>
<path d="M487.2 407.796C487.069 407.796 486.943 407.747 486.847 407.658C486.752 407.569 486.693 407.447 486.684 407.316C486.538 405.157 485.954 403.049 484.968 401.123C483.982 399.196 482.614 397.49 480.948 396.108C480.893 396.068 480.846 396.017 480.811 395.959C480.775 395.901 480.751 395.836 480.741 395.769C480.73 395.701 480.733 395.632 480.749 395.566C480.765 395.5 480.794 395.437 480.834 395.382C480.874 395.327 480.925 395.28 480.983 395.245C481.041 395.209 481.106 395.185 481.173 395.175C481.241 395.164 481.31 395.167 481.376 395.183C481.442 395.199 481.505 395.228 481.56 395.268C483.359 396.735 484.836 398.558 485.895 400.623C486.955 402.689 487.575 404.951 487.716 407.268C487.726 407.403 487.683 407.537 487.595 407.64C487.507 407.743 487.383 407.808 487.248 407.82L487.2 407.796Z" fill="white"/>
<path d="M485.76 412.596C485.631 412.598 485.507 412.551 485.412 412.464C485.317 412.366 485.265 412.235 485.265 412.098C485.265 411.962 485.317 411.83 485.412 411.732C485.616 411.504 490.536 406.188 501.912 407.748C502.047 407.772 502.168 407.845 502.25 407.955C502.332 408.064 502.37 408.2 502.356 408.336C502.335 408.472 502.262 408.595 502.152 408.678C502.042 408.761 501.905 408.797 501.768 408.78C490.968 407.304 486.228 412.38 486.168 412.38C486.124 412.447 486.063 412.503 485.992 412.54C485.92 412.578 485.841 412.597 485.76 412.596Z" fill="white"/>
<path d="M121.344 405.528L115.716 417.468C115.716 417.468 110.016 399.06 96.888 385.632C93.7902 382.477 90.1265 379.933 86.088 378.132C84.3 377.1 72.084 371.508 74.088 363.732C76.092 355.956 93.768 356.532 109.416 380.376C114.436 388.224 118.444 396.675 121.344 405.528Z" fill="#8775D2"/>
<path opacity="0.5" d="M121.344 405.528L115.716 417.468C115.716 417.468 110.016 399.06 96.888 385.632C93.7902 382.477 90.1265 379.933 86.088 378.132C84.3 377.1 72.084 371.508 74.088 363.732C76.092 355.956 93.768 356.532 109.416 380.376C114.436 388.224 118.444 396.675 121.344 405.528Z" fill="black"/>
<path d="M118.728 411.6C118.614 411.599 118.503 411.561 118.412 411.492C118.321 411.423 118.255 411.326 118.224 411.216C118.224 411.096 114.984 398.94 104.004 383.4C93.0239 367.86 79.2839 365.292 79.1999 365.268C79.1328 365.257 79.0687 365.232 79.0112 365.195C78.9537 365.159 78.904 365.111 78.865 365.056C78.826 365 78.7983 364.937 78.7837 364.87C78.7691 364.804 78.7678 364.735 78.7799 364.668C78.8062 364.534 78.8834 364.415 78.9953 364.337C79.1071 364.259 79.245 364.227 79.3799 364.248C79.5239 364.248 93.7799 367.008 104.916 382.8C116.052 398.592 119.316 410.832 119.316 410.952C119.349 411.086 119.329 411.227 119.259 411.346C119.19 411.465 119.077 411.551 118.944 411.588L118.728 411.6Z" fill="white"/>
<path d="M117 414.828L107.76 434.664C107.76 434.664 99.924 438.516 95.856 431.448C91.788 424.38 93.576 420.816 87.96 420.348C82.344 419.88 81.264 420.348 79.452 417.336C77.64 414.324 78.708 411.732 78.84 409.968C78.972 408.204 79.86 404.04 75.672 401.796C71.484 399.552 66.744 397.872 69.252 393.792C70.74 391.392 75.18 390.06 79.332 390.96C83.484 391.86 86.712 392.316 89.388 391.344C92.064 390.372 96.828 387.156 99.372 391.176C101.916 395.196 101.772 397.248 103.968 398.376C108 400.368 116.856 396.864 117 414.828Z" fill="#8775D2"/>
<path opacity="0.2" d="M117 414.828L107.76 434.664C107.76 434.664 99.924 438.516 95.856 431.448C91.788 424.38 93.576 420.816 87.96 420.348C82.344 419.88 81.264 420.348 79.452 417.336C77.64 414.324 78.708 411.732 78.84 409.968C78.972 408.204 79.86 404.04 75.672 401.796C71.484 399.552 66.744 397.872 69.252 393.792C70.74 391.392 75.18 390.06 79.332 390.96C83.484 391.86 86.712 392.316 89.388 391.344C92.064 390.372 96.828 387.156 99.372 391.176C101.916 395.196 101.772 397.248 103.968 398.376C108 400.368 116.856 396.864 117 414.828Z" fill="black"/>
<path d="M113.232 423.42C113.141 423.42 113.052 423.396 112.974 423.349C112.895 423.303 112.831 423.236 112.788 423.156C112.644 422.916 98.6159 399.024 72.5519 394.98C72.4837 394.97 72.4183 394.946 72.3595 394.91C72.3006 394.875 72.2496 394.827 72.2093 394.771C72.169 394.715 72.1404 394.652 72.125 394.585C72.1097 394.518 72.1079 394.448 72.1199 394.38C72.1286 394.313 72.1509 394.247 72.1856 394.189C72.2202 394.13 72.2664 394.079 72.3214 394.038C72.3764 393.998 72.439 393.969 72.5054 393.954C72.5719 393.938 72.6407 393.936 72.7079 393.948C99.2759 398.076 113.508 422.4 113.688 422.64C113.731 422.72 113.753 422.81 113.752 422.901C113.75 422.991 113.726 423.08 113.68 423.159C113.634 423.237 113.569 423.302 113.49 423.348C113.412 423.394 113.323 423.419 113.232 423.42Z" fill="white"/>
<path d="M96.78 405.492C96.6876 405.492 96.5968 405.467 96.5168 405.421C96.4367 405.375 96.3703 405.308 96.324 405.228C95.1323 403.241 94.3647 401.028 94.0693 398.729C93.774 396.431 93.9574 394.096 94.608 391.872C94.6309 391.808 94.6661 391.749 94.7116 391.699C94.7572 391.649 94.8121 391.608 94.8734 391.579C94.9347 391.55 95.0011 391.534 95.0688 391.53C95.1365 391.527 95.2042 391.537 95.268 391.56C95.3319 391.583 95.3906 391.618 95.4408 391.664C95.491 391.709 95.5318 391.764 95.5607 391.825C95.5897 391.887 95.6063 391.953 95.6096 392.021C95.6129 392.089 95.6029 392.156 95.58 392.22C94.9933 394.304 94.8344 396.485 95.1128 398.632C95.3912 400.778 96.1012 402.847 97.2 404.712C97.2343 404.771 97.2565 404.836 97.2654 404.904C97.2742 404.971 97.2696 405.04 97.2518 405.106C97.2339 405.172 97.2032 405.234 97.1613 405.287C97.1195 405.341 97.0674 405.386 97.008 405.42C96.9396 405.463 96.861 405.488 96.78 405.492Z" fill="white"/>
<path d="M85.2719 414.612C85.1999 414.611 85.1289 414.596 85.0629 414.567C84.997 414.538 84.9374 414.496 84.8879 414.444C84.8396 414.396 84.8013 414.339 84.7752 414.276C84.7491 414.213 84.7356 414.146 84.7356 414.078C84.7356 414.01 84.7491 413.943 84.7752 413.88C84.8013 413.817 84.8396 413.76 84.8879 413.712C93.3599 405.972 100.488 407.556 100.728 407.628C100.794 407.643 100.857 407.672 100.912 407.712C100.967 407.752 101.014 407.802 101.05 407.86C101.086 407.918 101.109 407.983 101.12 408.05C101.131 408.117 101.128 408.186 101.112 408.252C101.098 408.319 101.07 408.383 101.031 408.439C100.991 408.495 100.941 408.542 100.883 408.578C100.824 408.614 100.759 408.638 100.691 408.648C100.623 408.658 100.554 408.654 100.488 408.636C100.416 408.636 93.6239 407.136 85.5839 414.48C85.4963 414.556 85.3871 414.602 85.2719 414.612Z" fill="white"/>
<path d="M117.132 163.8C117.133 160.306 118.053 156.874 119.799 153.847C121.545 150.821 124.056 148.306 127.08 146.556L253.704 73.452C254.549 72.965 255.492 72.6734 256.464 72.5986C257.437 72.5239 258.413 72.6679 259.323 73.0201C260.232 73.3723 261.051 73.9238 261.719 74.634C262.387 75.3441 262.888 76.195 263.184 77.124C262.844 75.6356 262.208 74.2309 261.313 72.9939C260.418 71.7568 259.283 70.7128 257.976 69.924L257.52 69.66C254.369 67.7853 250.771 66.7946 247.104 66.792C245.932 66.7809 244.779 67.0878 243.768 67.68L117.144 140.82C114.115 142.566 111.6 145.079 109.851 148.106C108.103 151.134 107.183 154.568 107.184 158.064V431.892C107.186 433.036 107.488 434.16 108.06 435.15C108.632 436.141 109.455 436.963 110.446 437.536C111.436 438.108 112.56 438.41 113.704 438.412C114.848 438.413 115.972 438.114 116.964 437.544L117.132 437.448V163.8Z" fill="#37474F"/>
<path d="M253.536 370.176L126.912 443.28C125.922 443.853 124.798 444.156 123.653 444.157C122.509 444.157 121.384 443.857 120.393 443.285C119.402 442.713 118.578 441.891 118.006 440.9C117.433 439.909 117.132 438.785 117.132 437.64V163.8C117.133 160.306 118.053 156.874 119.799 153.847C121.545 150.821 124.056 148.306 127.08 146.556L253.704 73.4522C254.696 72.8822 255.82 72.583 256.964 72.5845C258.108 72.5859 259.232 72.888 260.222 73.4604C261.213 74.0329 262.036 74.8556 262.608 75.8461C263.181 76.8366 263.483 77.9601 263.484 79.1041V352.932C263.485 356.427 262.567 359.86 260.82 362.887C259.074 365.914 256.562 368.428 253.536 370.176Z" fill="#455A64"/>
<path d="M117.132 437.64V163.8C117.133 160.817 117.806 157.872 119.1 155.184L109.308 149.184C107.913 151.958 107.186 155.019 107.184 158.124V434.244C107.184 435.33 107.466 436.398 108.003 437.342C108.539 438.286 109.311 439.076 110.244 439.632L115.296 442.632C117.045 443.676 119.043 444.228 121.08 444.228H123.6C122.743 444.22 121.895 444.044 121.106 443.708C120.317 443.373 119.602 442.885 119.002 442.274C118.401 441.662 117.927 440.938 117.606 440.143C117.285 439.348 117.124 438.497 117.132 437.64Z" fill="#263238"/>
<path d="M249.18 99.78V330C249.178 333.087 248.364 336.118 246.82 338.791C245.276 341.464 243.057 343.684 240.384 345.228L128.568 409.776C127.725 410.265 126.771 410.53 125.796 410.544C126.119 411.29 126.596 411.96 127.195 412.508C127.795 413.057 128.504 413.473 129.276 413.728C130.048 413.983 130.865 414.072 131.674 413.988C132.483 413.905 133.265 413.651 133.968 413.244L245.784 348.684C248.456 347.14 250.674 344.92 252.216 342.247C253.758 339.574 254.569 336.542 254.568 333.456V105.516C254.571 104.053 254.014 102.645 253.013 101.578C252.011 100.512 250.64 99.8688 249.18 99.78Z" fill="#37474F"/>
<path d="M125.796 410.484C126.771 410.47 127.725 410.205 128.568 409.716L240.384 345.168C243.048 343.629 245.262 341.418 246.805 338.757C248.348 336.096 249.167 333.076 249.18 330V99.78C248.058 99.7895 246.951 100.048 245.94 100.536L134.124 165.084C131.45 166.627 129.229 168.846 127.685 171.519C126.141 174.192 125.328 177.225 125.328 180.312V408.192C125.327 408.993 125.49 409.785 125.808 410.52L125.796 410.484Z" fill="#8775D2"/>
<g opacity="0.5">
<path d="M125.796 410.484C126.771 410.47 127.725 410.205 128.568 409.716L240.384 345.168C243.048 343.629 245.262 341.418 246.805 338.757C248.348 336.096 249.167 333.076 249.18 330V99.78C248.058 99.7895 246.951 100.048 245.94 100.536L134.124 165.084C131.45 166.627 129.229 168.846 127.685 171.519C126.141 174.192 125.328 177.225 125.328 180.312V408.192C125.327 408.993 125.49 409.785 125.808 410.52L125.796 410.484Z" fill="white"/>
</g>
<path d="M172.584 131.352C172.546 132.05 172.345 132.73 171.997 133.336C171.649 133.943 171.164 134.459 170.58 134.844C169.464 135.48 168.564 134.964 168.564 133.644C168.602 132.945 168.805 132.264 169.155 131.658C169.505 131.051 169.994 130.535 170.58 130.152C171.684 129.6 172.584 130.068 172.584 131.352Z" fill="#263238"/>
<path d="M180.084 127.032C180.044 127.731 179.84 128.411 179.49 129.017C179.14 129.623 178.653 130.139 178.068 130.524C176.952 131.16 176.052 130.644 176.052 129.324C176.09 128.625 176.293 127.944 176.643 127.337C176.993 126.731 177.482 126.215 178.068 125.832C179.172 125.232 180.084 125.748 180.084 127.032Z" fill="#263238"/>
<path d="M210.312 111.9L186 126C185.028 126.552 184.248 126 184.248 124.68C184.258 124.026 184.422 123.383 184.726 122.803C185.031 122.224 185.467 121.724 186 121.344L210.348 107.292C211.308 106.728 212.088 107.292 212.088 108.6C212.069 109.25 211.898 109.887 211.59 110.46C211.281 111.033 210.844 111.526 210.312 111.9Z" fill="#263238"/>
<path d="M206.196 378.816C207.648 378.816 208.596 380.364 208.596 382.752C208.596 386.496 206.256 391.02 203.472 392.628L191.82 399.36C191.299 399.684 190.705 399.87 190.092 399.9C188.64 399.9 187.692 398.352 187.692 395.964C187.692 392.208 190.092 387.684 192.816 386.088L204.468 379.356C204.992 379.03 205.591 378.844 206.208 378.816M206.208 377.82C205.416 377.844 204.645 378.08 203.976 378.504L192.324 385.224C189.216 387.012 186.696 391.824 186.696 396.024C186.696 399.108 188.1 400.956 190.092 400.956C190.884 400.932 191.655 400.696 192.324 400.272L203.976 393.552C207.072 391.764 209.592 386.952 209.592 382.752C209.592 379.668 208.2 377.82 206.208 377.82Z" fill="#263238"/>
<path d="M141.828 196.452V454.452C141.828 459.132 143.544 462.264 146.16 463.296H146.232L157.392 469.404L157.32 459.492L156.12 191.976L144.348 185.976C142.768 189.248 141.909 192.82 141.828 196.452Z" fill="#E6E6E6"/>
<path d="M158.004 470.4L145.932 463.788C142.944 462.588 141.228 459.072 141.228 454.392V196.392C141.292 192.65 142.164 188.966 143.784 185.592L144.048 185.028L156.696 191.496V191.856L157.896 459.372L158.004 470.4ZM146.544 462.756L156.792 468.372V459.468L155.592 192.312L144.708 186.744C143.331 189.786 142.588 193.077 142.524 196.416V454.416C142.524 458.64 144 461.736 146.484 462.708L146.628 462.78L146.544 462.756Z" fill="#E6E6E6"/>
<path d="M144.324 186L156.096 192L282.096 118.692L290.496 113.796L278.868 107.244L278.544 107.052C276.684 105.936 274.26 106.008 271.584 107.556L152.328 176.4C148.766 178.734 145.98 182.076 144.324 186Z" fill="#E0E0E0"/>
<path d="M156.096 192.588C156 192.587 155.905 192.562 155.82 192.516L144.048 186.516C143.979 186.483 143.917 186.436 143.866 186.379C143.816 186.321 143.777 186.254 143.752 186.182C143.727 186.109 143.718 186.032 143.723 185.956C143.729 185.879 143.749 185.804 143.784 185.736C145.499 181.714 148.368 178.289 152.028 175.896L271.308 107.028C274.068 105.444 276.756 105.264 278.868 106.536H278.964L279.204 106.68L290.82 113.22C290.911 113.275 290.986 113.353 291.039 113.445C291.091 113.538 291.119 113.642 291.12 113.748C291.122 113.853 291.095 113.957 291.042 114.048C290.989 114.139 290.913 114.214 290.82 114.264L156.42 192.468C156.326 192.538 156.213 192.579 156.096 192.588ZM145.116 185.688L156.084 191.304L289.284 113.796L278.232 107.556L278.148 107.484C276.432 106.5 274.212 106.704 271.884 108.048L152.604 176.916C149.326 179.07 146.728 182.112 145.116 185.688Z" fill="#E0E0E0"/>
<path d="M153.372 202.932V459.732C153.372 463.776 154.668 466.68 156.72 468.048L157.404 468.42C159.192 469.26 161.436 469.08 163.872 467.664L221.532 434.4L283.2 397.32C286.358 395.344 288.973 392.612 290.809 389.371C292.645 386.129 293.642 382.481 293.712 378.756V121.956C293.712 118.044 292.512 115.212 290.568 113.784C290.24 113.538 289.881 113.337 289.5 113.184C288.46 112.816 287.347 112.698 286.253 112.84C285.158 112.982 284.112 113.379 283.2 114L163.92 184.032C160.555 185.793 157.833 188.574 156.144 191.976C154.413 195.375 153.465 199.119 153.372 202.932Z" fill="#FAFAFA"/>
<path d="M283.2 397.32C258.66 411.96 194.808 450.06 163.2 469.104C162.257 469.668 161.181 469.973 160.083 469.986C158.984 469.999 157.901 469.721 156.945 469.179C155.989 468.638 155.193 467.852 154.639 466.903C154.085 465.954 153.793 464.875 153.792 463.776V199.704C153.792 196.698 154.578 193.744 156.073 191.136C157.567 188.528 159.718 186.356 162.312 184.836L283.728 113.652C284.671 113.102 285.743 112.81 286.835 112.805C287.927 112.801 289.001 113.084 289.948 113.627C290.896 114.17 291.684 114.952 292.233 115.896C292.782 116.84 293.073 117.912 293.076 119.004V379.836C293.077 383.355 292.169 386.814 290.438 389.877C288.708 392.941 286.214 395.505 283.2 397.32Z" fill="#FAFAFA"/>
<path d="M282.852 396.792C263.58 408.264 244.316 419.768 225.06 431.304L190.86 451.764L175.26 461.124L168.432 465.228C166.332 466.488 164.1 468.288 161.772 469.092C157.92 470.436 154.452 467.352 154.356 463.548C154.356 462.936 154.356 462.348 154.356 461.712V219.6C154.356 213.156 154.356 206.7 154.356 200.256C154.312 197.205 155.083 194.198 156.589 191.544C158.095 188.89 160.282 186.686 162.924 185.16C165.708 183.516 168.504 181.896 171.324 180.264L210.516 157.2L257.016 129.948C265.836 124.788 274.632 119.58 283.416 114.444C286.152 112.86 289.596 113.016 291.504 115.884C292.179 117.029 292.496 118.349 292.416 119.676V378.828C292.536 382.407 291.713 385.955 290.028 389.114C288.342 392.274 285.855 394.934 282.816 396.828C282.156 397.236 282.756 398.28 283.416 397.872C286.612 395.893 289.237 393.114 291.03 389.81C292.823 386.506 293.723 382.791 293.64 379.032V138.132C293.64 131.868 293.7 125.592 293.64 119.316C293.671 118.06 293.359 116.819 292.738 115.726C292.117 114.633 291.21 113.73 290.115 113.114C289.02 112.497 287.778 112.19 286.522 112.226C285.265 112.261 284.042 112.638 282.984 113.316C280.056 115.008 277.152 116.736 274.248 118.44L234 142.116L187.08 169.62C178.8 174.48 170.4 179.304 162.156 184.2C159.381 185.833 157.086 188.17 155.503 190.975C153.921 193.779 153.107 196.952 153.144 200.172C153.144 202.332 153.144 204.492 153.144 206.652V462.528C153.144 462.936 153.144 463.356 153.144 463.728C153.157 464.801 153.421 465.857 153.914 466.81C154.407 467.763 155.116 468.588 155.984 469.218C156.853 469.849 157.856 470.268 158.915 470.442C159.975 470.616 161.06 470.54 162.084 470.22C164.352 469.464 166.488 467.76 168.528 466.536L175.488 462.348L191.088 453.012C213.776 439.412 236.484 425.836 259.212 412.284L283.488 397.8C284.112 397.44 283.512 396.396 282.852 396.792Z" fill="#EBEBEB"/>
<path d="M162.264 184.8L283.728 113.652C284.671 113.102 285.743 112.81 286.835 112.805C287.927 112.801 289.001 113.084 289.949 113.627C290.896 114.17 291.684 114.952 292.233 115.896C292.782 116.84 293.073 117.912 293.076 119.004V130.464L153.78 210.864V199.68C153.774 196.676 154.554 193.722 156.042 191.111C157.531 188.501 159.675 186.325 162.264 184.8Z" fill="#EBEBEB"/>
<path d="M245.713 247.269C258.03 225.935 258.03 202.876 245.713 195.764C233.396 188.653 213.426 200.183 201.109 221.517C188.792 242.85 188.792 265.91 201.109 273.021C213.426 280.132 233.396 268.602 245.713 247.269Z" fill="#8775D2"/>
<path opacity="0.5" d="M245.713 247.269C258.03 225.935 258.03 202.876 245.713 195.764C233.396 188.653 213.426 200.183 201.109 221.517C188.792 242.85 188.792 265.91 201.109 273.021C213.426 280.132 233.396 268.602 245.713 247.269Z" fill="white"/>
<path d="M217.752 234.528C217.566 234.528 217.382 234.491 217.21 234.42C217.038 234.349 216.882 234.245 216.751 234.113C216.619 233.982 216.515 233.826 216.444 233.654C216.373 233.482 216.336 233.298 216.336 233.112V223.788C216.44 221.576 217.071 219.421 218.177 217.502C219.284 215.584 220.833 213.958 222.696 212.76C223.45 212.139 224.376 211.762 225.349 211.681C226.323 211.6 227.298 211.818 228.145 212.306C228.992 212.794 229.669 213.528 230.087 214.411C230.505 215.294 230.643 216.284 230.484 217.248V226.584C230.484 226.96 230.335 227.32 230.069 227.585C229.804 227.851 229.443 228 229.068 228C228.692 228 228.332 227.851 228.067 227.585C227.801 227.32 227.652 226.96 227.652 226.584V217.2C227.839 216.731 227.85 216.21 227.683 215.734C227.516 215.257 227.182 214.858 226.742 214.609C226.303 214.36 225.788 214.278 225.294 214.38C224.799 214.481 224.358 214.758 224.052 215.16C222.624 216.114 221.435 217.384 220.577 218.872C219.72 220.36 219.217 222.026 219.108 223.74V233.064C219.121 233.438 218.986 233.801 218.732 234.076C218.478 234.35 218.125 234.512 217.752 234.528Z" fill="#37474F"/>
<path d="M234.84 220.572C234.508 220.435 234.147 220.383 233.791 220.423C233.434 220.463 233.093 220.593 232.8 220.8L213.936 231.696C213.109 232.215 212.424 232.933 211.944 233.784C211.189 235.009 210.775 236.414 210.744 237.852V254.184C210.702 254.642 210.764 255.104 210.926 255.534C211.088 255.964 211.346 256.352 211.68 256.668C211.782 256.748 211.895 256.813 212.016 256.86C212.336 256.979 212.679 257.019 213.017 256.978C213.356 256.936 213.679 256.813 213.96 256.62L232.8 245.712C233.783 245.011 234.587 244.088 235.148 243.019C235.709 241.95 236.01 240.763 236.028 239.556V223.2C236.094 222.695 236.018 222.181 235.808 221.717C235.599 221.253 235.263 220.856 234.84 220.572Z" fill="#8775D2"/>
<path d="M225.6 237.6L227.424 242.832L221.028 246.516L222.624 240.06L222.852 239.148C221.772 239.148 221.028 238.344 221.028 236.88C221.036 236.284 221.137 235.693 221.328 235.128C221.826 233.569 222.848 232.229 224.22 231.336C225.984 230.316 227.424 231.144 227.424 233.184C227.336 234.821 226.693 236.379 225.6 237.6Z" fill="#455A64"/>
<path d="M222.576 240L222.804 239.088C221.724 239.088 220.98 238.284 220.98 236.82C220.988 236.224 221.089 235.633 221.28 235.068L225.6 237.6L227.424 242.832L222.576 240Z" fill="#37474F"/>
<path d="M270 294.792L176.88 348.516C173.028 350.736 169.908 348.372 169.908 343.248V329.148C169.908 324.012 173.028 318.048 176.88 315.828L270 262.104C273.852 259.884 276.972 262.236 276.972 267.372V281.472C276.912 286.608 273.792 292.56 270 294.792Z" fill="#8775D2"/>
<path d="M193.62 314.556H191.82V329.472H193.62V314.556Z" fill="#FAFAFA"/>
<path d="M199.516 318.819L186.539 326.277L187.439 327.843L200.416 320.385L199.516 318.819Z" fill="#FAFAFA"/>
<path d="M188.595 318.614L187.695 320.173L196.83 325.447L197.73 323.888L188.595 318.614Z" fill="#FAFAFA"/>
<path d="M197.786 312.826L188.648 328.727L190.214 329.627L199.352 313.726L197.786 312.826Z" fill="#FAFAFA"/>
<path d="M224.304 297.852H222.504V312.768H224.304V297.852Z" fill="#FAFAFA"/>
<path d="M229.403 300.828L216.486 308.286L217.386 309.844L230.303 302.386L229.403 300.828Z" fill="#FAFAFA"/>
<path d="M219.291 301.905L218.391 303.464L227.526 308.738L228.426 307.179L219.291 301.905Z" fill="#FAFAFA"/>
<path d="M228.406 295.989L219.268 311.889L220.834 312.789L229.972 296.889L228.406 295.989Z" fill="#FAFAFA"/>
<path d="M254.988 281.136H253.188V296.052H254.988V281.136Z" fill="#FAFAFA"/>
<path d="M261.132 285.255L248.155 292.713L249.055 294.279L262.032 286.821L261.132 285.255Z" fill="#FAFAFA"/>
<path d="M249.976 285.19L249.076 286.749L258.211 292.023L259.111 290.464L249.976 285.19Z" fill="#FAFAFA"/>
<path d="M257.879 280.216L248.741 296.044L250.3 296.944L259.438 281.116L257.879 280.216Z" fill="#FAFAFA"/>
<path d="M272.7 314.208C273.9 314.208 274.512 316.068 274.512 317.916V332.016C274.512 336.3 271.86 341.448 268.74 343.26L175.68 396.984C175.208 397.285 174.667 397.463 174.108 397.5C172.908 397.5 172.308 395.64 172.308 393.792V379.692C172.308 375.408 174.948 370.26 178.08 368.448L271.2 314.724C271.668 314.423 272.205 314.246 272.76 314.208M272.76 311.808C271.783 311.844 270.832 312.134 270 312.648L176.88 366.372C173.028 368.592 169.908 374.556 169.908 379.692V393.792C169.908 397.608 171.636 399.9 174.108 399.9C175.089 399.866 176.045 399.577 176.88 399.06L270 345.336C273.852 343.116 276.972 337.152 276.972 332.016V317.916C276.972 314.1 275.232 311.808 272.76 311.808Z" fill="#8775D2"/>
<path d="M203.695 368.543C203.129 368.869 202.642 369.016 202.234 368.987C201.828 368.953 201.516 368.755 201.296 368.394C201.077 368.03 200.967 367.514 200.967 366.845C200.967 366.193 201.077 365.557 201.296 364.938C201.516 364.319 201.825 363.757 202.223 363.253C202.624 362.747 203.095 362.339 203.634 362.029C203.997 361.821 204.335 361.694 204.647 361.649C204.962 361.6 205.237 361.642 205.471 361.775C205.707 361.906 205.891 362.136 206.022 362.465C206.153 362.792 206.219 363.225 206.219 363.764V364.248L201.575 366.916V365.826L204.783 363.983C204.783 363.729 204.736 363.532 204.64 363.392C204.545 363.251 204.412 363.175 204.243 363.162C204.076 363.145 203.881 363.2 203.659 363.328C203.428 363.461 203.222 363.641 203.043 363.868C202.867 364.09 202.728 364.334 202.628 364.598C202.528 364.859 202.476 365.116 202.474 365.368V366.404C202.474 366.718 202.524 366.96 202.624 367.131C202.727 367.301 202.871 367.394 203.058 367.411C203.244 367.428 203.465 367.363 203.72 367.216C203.889 367.118 204.045 367.002 204.185 366.866C204.326 366.73 204.447 366.578 204.547 366.41C204.647 366.242 204.724 366.064 204.776 365.874L206.187 365.17C206.115 365.603 205.968 366.028 205.746 366.448C205.527 366.863 205.243 367.252 204.894 367.615C204.548 367.973 204.148 368.283 203.695 368.543ZM208.74 361.853V365.52L207.214 366.397V360.054L208.668 359.219V360.338L208.732 360.301C208.854 359.862 209.058 359.453 209.345 359.073C209.631 358.691 209.978 358.383 210.387 358.148C210.768 357.929 211.101 357.834 211.385 357.863C211.669 357.893 211.89 358.041 212.048 358.309C212.205 358.573 212.284 358.952 212.284 359.445V363.483L210.759 364.36V360.635C210.761 360.246 210.675 359.992 210.501 359.875C210.327 359.755 210.087 359.782 209.781 359.958C209.576 360.076 209.395 360.231 209.237 360.424C209.082 360.615 208.96 360.833 208.872 361.079C208.786 361.321 208.742 361.579 208.74 361.853ZM216.405 354.783V356.102L213.099 358.002V356.683L216.405 354.783ZM213.85 354.735L215.372 353.859V359.763C215.372 359.925 215.394 360.039 215.437 360.105C215.479 360.168 215.539 360.196 215.615 360.188C215.694 360.178 215.784 360.144 215.887 360.085C215.958 360.044 216.03 359.996 216.101 359.941C216.173 359.884 216.228 359.84 216.266 359.81L216.505 360.979C216.429 361.05 216.322 361.144 216.184 361.259C216.045 361.377 215.877 361.496 215.68 361.618C215.313 361.846 214.991 361.974 214.715 362.004C214.441 362.032 214.227 361.954 214.075 361.77C213.922 361.585 213.847 361.285 213.85 360.869V354.735ZM219.84 359.265C219.275 359.589 218.789 359.737 218.382 359.707C217.977 359.673 217.664 359.476 217.445 359.115C217.226 358.752 217.116 358.237 217.116 357.569C217.116 356.918 217.226 356.283 217.445 355.665C217.664 355.047 217.973 354.486 218.371 353.983C218.771 353.478 219.241 353.071 219.779 352.761C220.141 352.553 220.479 352.427 220.791 352.382C221.105 352.333 221.379 352.375 221.613 352.507C221.849 352.638 222.032 352.868 222.163 353.197C222.294 353.523 222.36 353.955 222.36 354.494V354.976L217.724 357.64V356.552L220.926 354.711C220.926 354.459 220.879 354.262 220.784 354.122C220.688 353.981 220.556 353.905 220.387 353.892C220.22 353.875 220.026 353.931 219.804 354.058C219.573 354.191 219.368 354.37 219.189 354.597C219.013 354.819 218.875 355.062 218.775 355.326C218.675 355.586 218.624 355.843 218.621 356.094V357.129C218.621 357.442 218.671 357.684 218.771 357.855C218.874 358.024 219.018 358.117 219.204 358.134C219.39 358.151 219.61 358.086 219.865 357.939C220.034 357.842 220.189 357.725 220.33 357.59C220.47 357.454 220.59 357.302 220.691 357.135C220.791 356.967 220.867 356.789 220.919 356.599L222.328 355.897C222.256 356.329 222.11 356.754 221.888 357.172C221.669 357.587 221.385 357.975 221.037 358.337C220.692 358.695 220.293 359.004 219.84 359.265ZM223.353 357.122V350.79L224.829 349.941V351.046L224.887 351.013C224.987 350.563 225.155 350.169 225.391 349.833C225.626 349.494 225.898 349.236 226.205 349.06C226.282 349.016 226.364 348.974 226.452 348.935C226.54 348.895 226.618 348.866 226.684 348.846V350.405C226.613 350.421 226.514 350.456 226.388 350.509C226.261 350.563 226.146 350.619 226.041 350.68C225.817 350.808 225.617 350.98 225.441 351.194C225.267 351.404 225.128 351.637 225.026 351.894C224.926 352.149 224.876 352.406 224.876 352.664V356.247L223.353 357.122Z" fill="#8775D2"/>
<path d="M409.668 153.972C409.723 154.921 410.003 155.844 410.485 156.664C410.967 157.484 411.637 158.178 412.44 158.688C413.976 159.552 415.212 158.844 415.212 157.116C415.157 156.166 414.877 155.244 414.395 154.424C413.913 153.604 413.243 152.91 412.44 152.4C410.916 151.536 409.668 152.232 409.668 153.972Z" fill="#455A64"/>
<path d="M372.504 165.144C370.064 165.063 367.687 164.351 365.604 163.08L356.808 158.1C356.735 158.064 356.67 158.013 356.617 157.951C356.564 157.889 356.524 157.817 356.5 157.739C356.476 157.661 356.468 157.579 356.477 157.498C356.485 157.417 356.51 157.338 356.55 157.267C356.59 157.196 356.644 157.134 356.709 157.085C356.774 157.035 356.848 156.999 356.928 156.98C357.007 156.96 357.089 156.956 357.17 156.969C357.25 156.983 357.327 157.012 357.396 157.056L366.192 162.036C369.996 164.184 373.512 164.532 376.116 163.02C378.72 161.508 380.076 158.4 380.076 154.188C380.076 149.544 381.696 146.04 384.624 144.324C387.552 142.608 391.572 142.932 395.748 145.296L409.968 153.348C410.104 153.428 410.203 153.558 410.246 153.71C410.288 153.862 410.27 154.025 410.196 154.164C410.118 154.302 409.988 154.404 409.835 154.446C409.682 154.489 409.518 154.47 409.38 154.392L395.16 146.4C391.368 144.252 387.84 143.904 385.236 145.428C382.632 146.952 381.276 150.048 381.276 154.248C381.276 158.904 379.656 162.408 376.728 164.112C375.436 164.825 373.978 165.181 372.504 165.144Z" fill="#455A64"/>
<path d="M353.172 155.412C353.214 156.179 353.44 156.925 353.83 157.587C354.221 158.249 354.765 158.808 355.416 159.216C356.616 159.924 357.66 159.348 357.66 157.944C357.618 157.176 357.392 156.43 357.001 155.768C356.611 155.106 356.067 154.548 355.416 154.14C354.18 153.432 353.172 154.008 353.172 155.412Z" fill="#455A64"/>
<path d="M495.108 142.656L436.308 109.368C435.69 108.915 434.944 108.67 434.178 108.67C433.412 108.67 432.666 108.915 432.048 109.368L426.96 112.872L430.428 117.156V179.112C430.428 183.444 433.068 188.472 436.308 190.356L493.632 222.756L493.896 227.364L499.248 223.692C499.865 223.117 500.342 222.408 500.641 221.619C500.941 220.831 501.055 219.984 500.976 219.144V153.9C501 149.568 498.36 144.54 495.108 142.656Z" fill="#8775D2"/>
<path opacity="0.3" d="M495.108 142.656L436.308 109.368C435.69 108.915 434.944 108.67 434.178 108.67C433.412 108.67 432.666 108.915 432.048 109.368L426.96 112.872L430.428 117.156V179.112C430.428 183.444 433.068 188.472 436.308 190.356L493.632 222.756L493.896 227.364L499.248 223.692C499.865 223.117 500.342 222.408 500.641 221.619C500.941 220.831 501.055 219.984 500.976 219.144V153.9C501 149.568 498.36 144.54 495.108 142.656Z" fill="black"/>
<path d="M490.116 227.076L431.316 193.788C428.064 191.916 425.436 186.876 425.436 182.544V117.264C425.436 112.92 428.064 110.928 431.316 112.812L490.116 146.1C493.368 147.972 495.996 153.012 495.996 157.344V222.636C495.996 226.968 493.368 228.96 490.116 227.076Z" fill="#8775D2"/>
<path d="M477.768 170.58C477.635 170.582 477.504 170.539 477.398 170.459C477.291 170.378 477.215 170.265 477.18 170.136C475.927 165.506 473.99 161.089 471.432 157.032C471.346 156.898 471.317 156.736 471.351 156.581C471.385 156.425 471.479 156.29 471.612 156.204C471.678 156.16 471.753 156.131 471.831 156.117C471.909 156.103 471.99 156.105 472.067 156.123C472.144 156.141 472.217 156.174 472.281 156.221C472.346 156.268 472.399 156.327 472.44 156.396C475.066 160.553 477.056 165.079 478.344 169.824C478.382 169.978 478.359 170.141 478.281 170.279C478.203 170.417 478.075 170.52 477.924 170.568L477.768 170.58Z" fill="white"/>
<path d="M479.112 182.784C478.952 182.772 478.803 182.697 478.697 182.575C478.592 182.454 478.538 182.296 478.548 182.136C478.548 181.5 478.62 180.828 478.62 180.144C478.614 178.092 478.433 176.045 478.08 174.024C478.053 173.865 478.09 173.701 478.184 173.57C478.277 173.438 478.419 173.349 478.578 173.322C478.737 173.295 478.9 173.332 479.032 173.425C479.164 173.519 479.253 173.661 479.28 173.82C479.647 175.908 479.836 178.024 479.844 180.144C479.844 180.852 479.844 181.548 479.772 182.22C479.766 182.3 479.744 182.379 479.707 182.451C479.671 182.523 479.621 182.587 479.559 182.639C479.498 182.692 479.427 182.731 479.35 182.756C479.273 182.781 479.192 182.79 479.112 182.784Z" fill="white"/>
<path d="M442.404 162.864C442.256 162.864 442.113 162.809 442.004 162.709C441.895 162.609 441.828 162.471 441.816 162.324C441.72 161.28 441.672 160.236 441.672 159.228C441.672 153.408 443.244 148.608 446.1 145.692C446.155 145.636 446.22 145.592 446.292 145.561C446.364 145.531 446.442 145.515 446.52 145.515C446.598 145.515 446.676 145.531 446.748 145.561C446.82 145.592 446.885 145.636 446.94 145.692C446.996 145.748 447.041 145.814 447.071 145.887C447.102 145.96 447.117 146.039 447.117 146.118C447.117 146.197 447.102 146.275 447.071 146.349C447.041 146.422 446.996 146.488 446.94 146.544C444.312 149.232 442.86 153.744 442.86 159.24C442.86 160.212 442.86 161.22 442.992 162.228C443 162.306 442.993 162.385 442.97 162.46C442.947 162.536 442.909 162.606 442.859 162.666C442.808 162.726 442.747 162.776 442.677 162.812C442.607 162.848 442.53 162.87 442.452 162.876L442.404 162.864Z" fill="white"/>
<path d="M468.948 153.156C468.859 153.157 468.77 153.138 468.689 153.101C468.608 153.063 468.537 153.008 468.48 152.94C466.257 150.109 463.526 147.716 460.428 145.884C456.444 143.628 452.7 143.196 449.628 144.684C449.484 144.75 449.321 144.756 449.173 144.702C449.024 144.648 448.903 144.538 448.836 144.396C448.801 144.324 448.782 144.246 448.777 144.167C448.773 144.088 448.785 144.008 448.812 143.934C448.839 143.859 448.88 143.79 448.934 143.731C448.987 143.673 449.052 143.625 449.124 143.592C452.58 141.996 456.696 142.392 461.04 144.9C464.268 146.81 467.116 149.3 469.44 152.244C469.539 152.367 469.586 152.524 469.571 152.681C469.555 152.838 469.478 152.983 469.356 153.084C469.233 153.156 469.088 153.181 468.948 153.156Z" fill="white"/>
<path d="M446.544 163.332C446.389 163.332 446.24 163.272 446.128 163.165C446.016 163.057 445.95 162.911 445.944 162.756C445.944 162.384 445.944 162.012 445.944 161.64C445.944 157.38 446.988 153.9 448.968 151.584C449.018 151.523 449.079 151.473 449.149 151.436C449.218 151.4 449.294 151.377 449.373 151.371C449.451 151.364 449.53 151.373 449.605 151.397C449.679 151.421 449.748 151.461 449.808 151.512C449.929 151.616 450.004 151.764 450.017 151.923C450.031 152.083 449.981 152.241 449.88 152.364C448.092 154.464 447.144 157.668 447.144 161.64C447.144 161.988 447.144 162.348 447.144 162.696C447.147 162.775 447.135 162.853 447.107 162.927C447.08 163.001 447.039 163.069 446.985 163.127C446.932 163.185 446.867 163.232 446.796 163.265C446.724 163.298 446.647 163.317 446.568 163.32L446.544 163.332Z" fill="white"/>
<path d="M451.2 150.972C451.068 150.973 450.939 150.931 450.834 150.852C450.728 150.773 450.652 150.661 450.616 150.534C450.581 150.407 450.588 150.271 450.637 150.149C450.686 150.026 450.774 149.923 450.888 149.856C452.426 148.942 454.226 148.57 456 148.8C456.157 148.815 456.302 148.892 456.403 149.013C456.504 149.134 456.553 149.291 456.54 149.448C456.522 149.606 456.443 149.751 456.319 149.852C456.196 149.953 456.038 150.002 455.88 149.988C454.368 149.808 452.839 150.137 451.536 150.924C451.43 150.969 451.314 150.985 451.2 150.972Z" fill="white"/>
<path d="M477.768 190.5C477.648 190.5 477.53 190.465 477.43 190.399C477.33 190.333 477.251 190.238 477.204 190.128L476.508 188.388C475.113 185.023 474.376 181.422 474.336 177.78C474.336 167.604 468.096 155.832 460.428 151.488C460.359 151.449 460.299 151.397 460.251 151.335C460.203 151.273 460.167 151.202 460.147 151.126C460.127 151.049 460.122 150.97 460.134 150.892C460.145 150.814 460.171 150.739 460.212 150.672C460.249 150.602 460.301 150.541 460.362 150.491C460.424 150.442 460.495 150.406 460.571 150.384C460.648 150.363 460.727 150.357 460.806 150.367C460.884 150.378 460.96 150.404 461.028 150.444C469.02 154.98 475.536 167.244 475.536 177.732C475.566 181.235 476.275 184.699 477.624 187.932L478.32 189.672C478.351 189.744 478.368 189.822 478.368 189.901C478.369 189.98 478.353 190.058 478.323 190.13C478.293 190.203 478.248 190.269 478.192 190.324C478.136 190.38 478.069 190.423 477.996 190.452C477.924 190.484 477.846 190.5 477.768 190.5Z" fill="white"/>
<path d="M450.216 183.6C450.093 183.6 449.972 183.562 449.871 183.491C449.771 183.42 449.694 183.32 449.652 183.204C447.714 177.534 446.461 171.652 445.92 165.684C445.913 165.604 445.923 165.524 445.948 165.448C445.973 165.372 446.013 165.301 446.065 165.241C446.118 165.181 446.182 165.131 446.254 165.096C446.326 165.061 446.404 165.04 446.484 165.036C446.642 165.032 446.795 165.088 446.913 165.193C447.031 165.297 447.105 165.443 447.12 165.6C447.631 171.455 448.84 177.227 450.72 182.796C450.748 182.87 450.762 182.949 450.759 183.028C450.756 183.107 450.737 183.185 450.704 183.257C450.67 183.328 450.622 183.392 450.563 183.445C450.504 183.498 450.435 183.538 450.36 183.564C450.314 183.582 450.265 183.594 450.216 183.6Z" fill="white"/>
<path d="M474.24 194.544C474.118 194.546 473.998 194.511 473.897 194.442C473.796 194.373 473.718 194.275 473.676 194.16L472.068 189.84C470.447 185.623 469.574 181.156 469.488 176.64V171.924C469.488 166.32 465.468 159.492 460.524 156.696C458.22 155.388 456.084 155.16 454.524 156.072C452.964 156.984 452.124 158.868 452.124 161.424V165.6C452.255 172.384 453.613 179.088 456.132 185.388L458.112 190.548C458.141 190.622 458.155 190.701 458.153 190.78C458.151 190.86 458.133 190.938 458.101 191.011C458.069 191.083 458.022 191.149 457.964 191.203C457.906 191.258 457.838 191.3 457.764 191.328C457.616 191.383 457.452 191.377 457.309 191.312C457.165 191.246 457.052 191.127 456.996 190.98L455.016 185.82C452.459 179.379 451.085 172.529 450.96 165.6V161.436C450.96 158.436 452.004 156.168 453.924 155.052C455.844 153.936 458.424 154.14 461.124 155.664C466.392 158.652 470.724 165.948 470.724 171.936V176.652C470.807 181.026 471.656 185.351 473.232 189.432L474.828 193.74C474.857 193.813 474.87 193.891 474.868 193.97C474.866 194.048 474.849 194.126 474.816 194.197C474.784 194.269 474.737 194.333 474.68 194.387C474.622 194.44 474.554 194.481 474.48 194.508L474.24 194.544Z" fill="white"/>
<path d="M468.948 196.26C468.82 196.261 468.694 196.22 468.591 196.145C468.487 196.069 468.41 195.962 468.372 195.84L467.532 193.008C466.002 188.037 465.194 182.873 465.132 177.672V170.4C465.039 168.753 464.555 167.151 463.72 165.728C462.886 164.305 461.724 163.101 460.332 162.216C459.898 161.898 459.388 161.699 458.853 161.641C458.318 161.582 457.777 161.664 457.284 161.88C456.862 162.186 456.529 162.598 456.319 163.074C456.108 163.551 456.027 164.074 456.084 164.592C456.084 172.704 458.556 182.052 463.032 190.92L464.724 194.268C464.759 194.339 464.78 194.416 464.786 194.495C464.792 194.574 464.782 194.654 464.757 194.729C464.732 194.804 464.692 194.874 464.64 194.934C464.588 194.993 464.525 195.043 464.454 195.078C464.383 195.113 464.306 195.135 464.227 195.14C464.148 195.146 464.068 195.136 463.993 195.111C463.918 195.086 463.848 195.046 463.788 194.994C463.728 194.942 463.679 194.879 463.644 194.808L461.964 191.46C457.392 182.424 454.884 172.884 454.884 164.592C454.816 163.864 454.946 163.132 455.258 162.471C455.57 161.81 456.055 161.246 456.66 160.836C457.332 160.512 458.079 160.372 458.823 160.431C459.568 160.49 460.283 160.746 460.896 161.172C462.469 162.169 463.783 163.525 464.728 165.13C465.673 166.734 466.223 168.541 466.332 170.4V177.696C466.386 182.783 467.175 187.835 468.672 192.696L469.512 195.516C469.536 195.592 469.544 195.671 469.536 195.75C469.528 195.829 469.505 195.905 469.467 195.975C469.428 196.044 469.377 196.106 469.314 196.155C469.252 196.204 469.18 196.239 469.104 196.26C469.052 196.27 468.999 196.27 468.948 196.26Z" fill="white"/>
<path d="M462.216 183.6C462.08 183.598 461.948 183.551 461.842 183.467C461.735 183.382 461.66 183.264 461.628 183.132L461.076 180.564C460.548 178.095 460.283 175.577 460.284 173.052V166.296C460.284 166.137 460.347 165.984 460.46 165.872C460.572 165.759 460.725 165.696 460.884 165.696C461.043 165.696 461.196 165.759 461.308 165.872C461.421 165.984 461.484 166.137 461.484 166.296V173.052C461.491 175.472 461.748 177.885 462.252 180.252L462.804 182.82C462.822 182.896 462.824 182.976 462.81 183.053C462.797 183.13 462.768 183.204 462.725 183.27C462.683 183.336 462.627 183.393 462.563 183.437C462.498 183.481 462.425 183.512 462.348 183.528L462.216 183.6Z" fill="white"/>
<path d="M443.712 170.58C443.563 170.578 443.421 170.522 443.31 170.423C443.2 170.324 443.129 170.187 443.112 170.04L442.764 166.536C442.75 166.377 442.799 166.22 442.9 166.096C443.001 165.973 443.146 165.894 443.304 165.876C443.383 165.866 443.463 165.872 443.54 165.894C443.617 165.916 443.688 165.954 443.75 166.004C443.812 166.055 443.862 166.117 443.899 166.188C443.936 166.259 443.958 166.336 443.964 166.416L444.312 169.92C444.32 169.999 444.313 170.079 444.29 170.155C444.267 170.231 444.23 170.301 444.18 170.363C444.129 170.424 444.067 170.475 443.998 170.512C443.928 170.549 443.851 170.572 443.772 170.58H443.712Z" fill="white"/>
<path d="M495.108 253.848L436.308 220.548C435.69 220.095 434.944 219.85 434.178 219.85C433.412 219.85 432.666 220.095 432.048 220.548L426.96 224.052L430.428 228.336V290.292C430.428 294.624 433.068 299.652 436.308 301.536L493.632 333.936L493.896 338.544L499.248 334.884C499.865 334.306 500.342 333.595 500.642 332.805C500.941 332.014 501.056 331.165 500.976 330.324V265.044C501 260.748 498.36 255.72 495.108 253.848Z" fill="#8775D2"/>
<path opacity="0.3" d="M495.108 253.848L436.308 220.548C435.69 220.095 434.944 219.85 434.178 219.85C433.412 219.85 432.666 220.095 432.048 220.548L426.96 224.052L430.428 228.336V290.292C430.428 294.624 433.068 299.652 436.308 301.536L493.632 333.936L493.896 338.544L499.248 334.884C499.865 334.306 500.342 333.595 500.642 332.805C500.941 332.014 501.056 331.165 500.976 330.324V265.044C501 260.748 498.36 255.72 495.108 253.848Z" fill="black"/>
<path d="M490.116 338.256L431.316 304.968C428.064 303.096 425.436 298.068 425.436 293.724V228.444C425.436 224.112 428.064 222.12 431.316 223.992L490.116 257.28C493.368 259.164 495.996 264.192 495.996 268.524V333.816C495.996 338.148 493.368 340.14 490.116 338.256Z" fill="#8775D2"/>
<path d="M438.54 246.66C438.381 246.66 438.228 246.597 438.116 246.484C438.003 246.372 437.94 246.219 437.94 246.06V242.016C437.937 241.614 438.04 241.219 438.241 240.871C438.441 240.523 438.731 240.235 439.08 240.036C439.442 239.818 439.857 239.703 440.28 239.703C440.703 239.703 441.118 239.818 441.48 240.036L445.716 242.436C445.856 242.514 445.959 242.644 446.003 242.799C446.047 242.953 446.028 243.118 445.95 243.258C445.872 243.398 445.742 243.501 445.587 243.545C445.433 243.589 445.268 243.57 445.128 243.492L440.88 241.092C440.698 240.987 440.491 240.931 440.28 240.931C440.069 240.931 439.862 240.987 439.68 241.092C439.514 241.185 439.376 241.321 439.281 241.486C439.186 241.65 439.137 241.838 439.14 242.028V246.072C439.137 246.229 439.072 246.379 438.96 246.489C438.848 246.598 438.697 246.66 438.54 246.66Z" fill="white"/>
<path d="M445.356 302.304C445.256 302.303 445.157 302.278 445.068 302.232L441.108 299.988C440.162 299.443 439.376 298.658 438.83 297.711C438.284 296.765 437.998 295.692 438 294.6V290.868C438 290.709 438.063 290.556 438.176 290.444C438.288 290.331 438.441 290.268 438.6 290.268C438.759 290.268 438.912 290.331 439.024 290.444C439.137 290.556 439.2 290.709 439.2 290.868V294.6C439.204 295.485 439.442 296.354 439.891 297.117C440.34 297.88 440.984 298.511 441.756 298.944L445.716 301.188C445.829 301.255 445.916 301.356 445.966 301.478C446.015 301.599 446.023 301.733 445.989 301.86C445.955 301.986 445.881 302.098 445.777 302.178C445.674 302.258 445.547 302.302 445.416 302.304H445.356Z" fill="white"/>
<path d="M481.2 322.356C480.779 322.364 480.364 322.256 480 322.044L475.764 319.644C475.626 319.566 475.524 319.436 475.481 319.283C475.439 319.13 475.458 318.966 475.536 318.828C475.616 318.692 475.746 318.592 475.898 318.55C476.05 318.507 476.213 318.525 476.352 318.6L480.6 321C480.782 321.105 480.989 321.161 481.2 321.161C481.411 321.161 481.618 321.105 481.8 321C481.966 320.907 482.104 320.771 482.199 320.606C482.294 320.441 482.343 320.254 482.34 320.064V316.02C482.34 315.861 482.403 315.708 482.516 315.596C482.628 315.483 482.781 315.42 482.94 315.42C483.099 315.42 483.252 315.483 483.364 315.596C483.477 315.708 483.54 315.861 483.54 316.02V320.064C483.543 320.464 483.438 320.857 483.238 321.203C483.037 321.549 482.748 321.835 482.4 322.032C482.037 322.247 481.622 322.359 481.2 322.356Z" fill="white"/>
<path d="M482.916 271.8C482.757 271.8 482.604 271.737 482.492 271.624C482.379 271.512 482.316 271.359 482.316 271.2V267.468C482.313 266.584 482.074 265.717 481.625 264.955C481.176 264.194 480.532 263.566 479.76 263.136L475.8 260.892C475.661 260.811 475.559 260.68 475.516 260.525C475.474 260.37 475.494 260.204 475.572 260.064C475.611 259.995 475.662 259.935 475.725 259.887C475.787 259.839 475.858 259.803 475.934 259.783C476.01 259.763 476.09 259.758 476.168 259.77C476.246 259.781 476.321 259.807 476.388 259.848L480.348 262.092C481.304 262.628 482.101 263.408 482.657 264.353C483.214 265.297 483.51 266.372 483.516 267.468V271.2C483.516 271.359 483.453 271.512 483.34 271.624C483.228 271.737 483.075 271.8 482.916 271.8Z" fill="white"/>
<path d="M443.856 266.844C443.99 273.658 444.965 280.429 446.76 287.004C451.32 304.212 469.308 314.784 474.252 303.132C476.575 297.399 477.713 291.256 477.6 285.072C477.6 274.512 470.04 261.672 460.728 256.392C451.2 251.004 443.724 256.008 443.856 266.844Z" fill="white"/>
<path d="M460.128 276.456V287.76L455.22 284.088L460.128 276.456Z" fill="#E0E0E0"/>
<path d="M450.996 269.7C451.028 270.254 451.19 270.793 451.47 271.272C451.749 271.752 452.138 272.159 452.604 272.46C453.504 272.964 454.224 272.556 454.224 271.536C454.192 270.982 454.029 270.443 453.747 269.965C453.465 269.487 453.073 269.084 452.604 268.788C451.716 268.284 450.996 268.692 450.996 269.7Z" fill="#E0E0E0"/>
<path d="M466.02 278.316C466.054 278.869 466.219 279.407 466.5 279.884C466.782 280.362 467.172 280.766 467.64 281.064C468.54 281.568 469.26 281.16 469.26 280.152C469.228 279.596 469.065 279.056 468.783 278.576C468.502 278.096 468.11 277.69 467.64 277.392C466.8 276.888 466.02 277.296 466.02 278.316Z" fill="#E0E0E0"/>
<path d="M458.508 293.292L463.992 292.368C463.992 292.368 462.828 298.224 458.508 293.292Z" fill="#E0E0E0"/>
<path d="M409.668 258.864C409.725 259.811 410.006 260.732 410.488 261.55C410.97 262.367 411.639 263.059 412.44 263.568C413.976 264.444 415.212 263.736 415.212 262.008C415.157 261.058 414.877 260.136 414.395 259.316C413.913 258.496 413.243 257.802 412.44 257.292C410.916 256.416 409.668 257.124 409.668 258.864Z" fill="#455A64"/>
<path d="M409.776 260.172C409.672 260.171 409.569 260.147 409.476 260.1L395.268 252C386.952 247.296 380.184 235.788 380.184 226.368C380.184 217.32 373.692 206.292 365.712 201.768L356.808 196.728C356.67 196.65 356.568 196.52 356.525 196.367C356.483 196.214 356.502 196.051 356.58 195.912C356.617 195.842 356.669 195.781 356.73 195.732C356.792 195.682 356.863 195.646 356.939 195.624C357.016 195.603 357.095 195.597 357.174 195.608C357.252 195.618 357.328 195.644 357.396 195.684L366.3 200.724C374.616 205.44 381.384 216.936 381.384 226.368C381.384 235.404 387.876 246.432 395.856 250.956L410.076 259.02C410.214 259.098 410.316 259.228 410.359 259.381C410.401 259.534 410.382 259.698 410.304 259.836C410.253 259.934 410.178 260.016 410.085 260.075C409.992 260.134 409.886 260.167 409.776 260.172Z" fill="#455A64"/>
<path d="M353.172 193.848C353.218 194.616 353.445 195.362 353.835 196.026C354.225 196.689 354.767 197.25 355.416 197.664C356.616 198.36 357.66 197.796 357.66 196.392C357.614 195.624 357.386 194.878 356.996 194.214C356.606 193.551 356.065 192.99 355.416 192.576C354.18 191.88 353.172 192.444 353.172 193.848Z" fill="#455A64"/>
<path d="M370.056 303.84C370.056 303.84 378.804 303.252 383.76 315.408C386.844 322.968 390.6 334.608 393 342.408C393.728 344.763 393.746 347.281 393.05 349.646C392.354 352.011 390.976 354.119 389.088 355.704L373.836 368.508L368.4 358.584C371.57 354.354 375.056 350.371 378.828 346.668L368.4 315.408L370.056 303.84Z" fill="#FFA8A7"/>
<path d="M374.088 340.968C374.088 340.968 387.984 342.804 391.452 332.088C391.452 332.088 385.452 316.404 382.764 311.196C380.076 305.988 374.46 302.196 370.056 303.84C365.652 305.484 374.088 340.968 374.088 340.968Z" fill="#8775D2"/>
<path opacity="0.4" d="M374.088 340.968C374.088 340.968 387.984 342.804 391.452 332.088C391.452 332.088 385.452 316.404 382.764 311.196C380.076 305.988 374.46 302.196 370.056 303.84C365.652 305.484 374.088 340.968 374.088 340.968Z" fill="white"/>
<path d="M364.8 481.68C364.8 481.68 358.2 476.028 355.632 475.764C353.064 475.5 348.624 479.892 352.38 487.512C353.424 489.636 357.672 491.928 360.324 495.996C362.976 500.064 365.352 503.124 369.42 502.56C373.488 501.996 374.016 499.716 373.752 497.064C373.408 494.638 372.923 492.234 372.3 489.864L364.8 481.68Z" fill="#37474F"/>
<path d="M369.6 501.348C365.412 501.924 362.952 498.768 360.216 494.58C357.48 490.392 353.112 488.016 352.032 485.832C351.6 484.957 351.246 484.046 350.976 483.108C351.176 484.644 351.639 486.133 352.344 487.512C353.388 489.636 357.636 491.928 360.288 495.996C362.94 500.064 365.316 503.124 369.384 502.56C372.504 502.14 373.536 500.688 373.728 498.84C373.2 500.088 372.06 501.024 369.6 501.348Z" fill="#263238"/>
<path d="M361.296 488.952C361.19 488.954 361.085 488.925 360.996 488.868C360.921 488.829 360.856 488.775 360.802 488.711C360.749 488.646 360.708 488.571 360.684 488.491C360.659 488.411 360.651 488.326 360.659 488.243C360.667 488.159 360.692 488.078 360.732 488.004C362.075 485.624 364.305 483.873 366.936 483.132C367.098 483.107 367.263 483.145 367.398 483.237C367.533 483.329 367.629 483.469 367.665 483.628C367.702 483.788 367.676 483.955 367.594 484.097C367.513 484.238 367.38 484.344 367.224 484.392C364.96 485.053 363.039 486.562 361.86 488.604C361.806 488.707 361.725 488.794 361.626 488.855C361.526 488.917 361.412 488.95 361.296 488.952Z" fill="#EBEBEB"/>
<path d="M358.8 486.672C358.696 486.671 358.593 486.647 358.5 486.6C358.426 486.561 358.36 486.507 358.306 486.443C358.253 486.378 358.212 486.303 358.188 486.223C358.163 486.143 358.155 486.058 358.163 485.975C358.171 485.891 358.196 485.81 358.236 485.736C358.9 484.555 359.792 483.516 360.858 482.68C361.925 481.844 363.146 481.227 364.452 480.864C364.538 480.819 364.633 480.795 364.731 480.792C364.828 480.79 364.924 480.81 365.012 480.851C365.1 480.892 365.178 480.952 365.239 481.027C365.3 481.103 365.344 481.191 365.365 481.286C365.387 481.38 365.387 481.479 365.365 481.573C365.343 481.668 365.299 481.756 365.238 481.831C365.176 481.906 365.098 481.966 365.01 482.007C364.921 482.047 364.825 482.067 364.728 482.064C362.465 482.732 360.544 484.244 359.364 486.288C359.317 486.4 359.239 486.496 359.139 486.564C359.039 486.632 358.921 486.67 358.8 486.672Z" fill="#EBEBEB"/>
<path d="M356.004 484.404C355.9 484.403 355.797 484.378 355.704 484.332C355.553 484.251 355.44 484.113 355.391 483.948C355.341 483.784 355.359 483.607 355.44 483.456C356.787 481.077 359.023 479.33 361.656 478.596C361.738 478.576 361.823 478.573 361.906 478.587C361.989 478.601 362.069 478.631 362.14 478.675C362.212 478.72 362.274 478.778 362.322 478.847C362.371 478.916 362.405 478.994 362.424 479.076C362.46 479.243 362.428 479.417 362.336 479.561C362.244 479.705 362.099 479.807 361.932 479.844C359.668 480.512 357.748 482.024 356.568 484.068C356.514 484.171 356.433 484.257 356.334 484.316C356.234 484.375 356.12 484.406 356.004 484.404Z" fill="#EBEBEB"/>
<path d="M329.676 500.22C329.676 500.22 320.832 497.352 318.192 498.144C315.552 498.936 312.972 505.104 319.812 511.092C321.708 512.748 326.844 513.276 331.14 516.204C335.436 519.132 339.036 521.16 342.828 518.94C346.62 516.72 346.308 514.14 345.624 511.404C344.772 507.876 344.076 505.308 344.076 505.308L329.676 500.22Z" fill="#37474F"/>
<path d="M342.54 517.656C338.64 519.948 334.908 517.848 330.54 514.824C326.172 511.8 320.82 511.224 318.864 509.556C318.072 508.868 317.345 508.109 316.692 507.288C317.52 508.729 318.592 510.016 319.86 511.092C321.756 512.748 326.892 513.276 331.188 516.204C335.484 519.132 339.084 521.16 342.876 518.94C345.768 517.248 346.2 515.34 345.636 513.48C345.6 514.932 344.784 516.336 342.54 517.656Z" fill="#263238"/>
<path d="M327.6 508.392H327.54C327.37 508.374 327.214 508.289 327.106 508.157C326.998 508.024 326.947 507.854 326.964 507.684C327.312 504.795 328.792 502.162 331.08 500.364C331.148 500.315 331.224 500.28 331.306 500.261C331.387 500.242 331.471 500.239 331.554 500.252C331.636 500.265 331.715 500.295 331.786 500.339C331.857 500.383 331.919 500.44 331.968 500.508C332.067 500.647 332.108 500.819 332.081 500.988C332.054 501.156 331.961 501.307 331.824 501.408C329.846 503.003 328.557 505.297 328.224 507.816C328.209 507.972 328.137 508.117 328.022 508.223C327.907 508.33 327.757 508.39 327.6 508.392Z" fill="#EBEBEB"/>
<path d="M331.2 509.58C331.032 509.562 330.878 509.479 330.771 509.349C330.663 509.219 330.61 509.052 330.624 508.884C330.976 505.993 332.456 503.358 334.74 501.552C334.88 501.454 335.053 501.415 335.222 501.445C335.391 501.474 335.541 501.569 335.64 501.708C335.688 501.777 335.722 501.854 335.741 501.936C335.759 502.017 335.761 502.102 335.746 502.185C335.732 502.267 335.701 502.346 335.656 502.417C335.611 502.487 335.553 502.548 335.484 502.596C333.501 504.187 332.211 506.483 331.884 509.004C331.869 509.171 331.788 509.325 331.66 509.433C331.532 509.54 331.367 509.593 331.2 509.58Z" fill="#EBEBEB"/>
<path d="M324.192 507.156H324.132C323.964 507.138 323.81 507.055 323.703 506.925C323.595 506.795 323.543 506.628 323.556 506.46C323.902 503.567 325.383 500.93 327.672 499.128C327.81 499.029 327.982 498.99 328.15 499.018C328.318 499.046 328.467 499.14 328.566 499.278C328.665 499.416 328.704 499.588 328.676 499.756C328.648 499.924 328.554 500.073 328.416 500.172C326.433 501.763 325.143 504.059 324.816 506.58C324.801 506.736 324.729 506.881 324.614 506.987C324.499 507.094 324.349 507.154 324.192 507.156Z" fill="#EBEBEB"/>
<path d="M372.72 483.36C373.512 474.6 375.228 460.872 375.948 454.452C376.918 446.338 376.683 438.125 375.252 430.08C374.884 428.183 374.791 426.243 374.976 424.32C376.716 406.872 377.844 378.588 376.884 372.372L352.392 377.556C352.392 377.556 355.392 417.24 356.712 430.44C358.032 443.64 362.952 483.48 362.952 483.48C364.414 484.416 366.118 484.903 367.854 484.882C369.59 484.86 371.281 484.331 372.72 483.36Z" fill="#455A64"/>
<path d="M369.192 492.372C369.868 492.214 370.5 491.906 371.04 491.469C371.581 491.033 372.015 490.48 372.312 489.852C372.312 488.472 372.468 486.168 372.72 483.36C371.281 484.331 369.59 484.86 367.854 484.881C366.118 484.903 364.414 484.416 362.952 483.48L363.816 490.848C364.536 491.496 365.395 491.97 366.327 492.235C367.259 492.499 368.239 492.546 369.192 492.372Z" fill="#FFA8A7"/>
<path d="M345.168 498.768C346.164 485.496 348.096 459.804 348.348 455.76C348.536 451.299 348.254 446.83 347.508 442.428C347.074 440.048 347.074 437.609 347.508 435.228L358.308 375.492L328.704 375.06L326.772 437.64C326.75 438.441 326.782 439.243 326.868 440.04L333.144 498.372C333.144 498.372 339.264 503.52 345.168 498.768Z" fill="#455A64"/>
<path d="M340.224 509.712C341.144 509.606 342.024 509.271 342.782 508.739C343.541 508.207 344.155 507.493 344.568 506.664L345.168 498.768C339.264 503.568 333.168 498.396 333.168 498.396L334.104 507.132C334.104 507.132 335.472 510.156 340.224 509.712Z" fill="#FFA8A7"/>
<path d="M342.384 307.824L335.4 310.224L327.888 345.756L328.26 377.256C328.26 377.256 333.624 381.54 354.576 381.54C366.336 381.54 374.004 377.1 376.884 372.384L375 353.352C375 353.352 376.884 334.596 376.884 325.32C376.884 316.044 377.304 308.448 370.056 303.852L363.6 304.392L342.384 307.824Z" fill="#8775D2"/>
<path opacity="0.2" d="M342.384 307.824L335.4 310.224L327.888 345.756L328.26 377.256C328.26 377.256 333.624 381.54 354.576 381.54C366.336 381.54 374.004 377.1 376.884 372.384L375 353.352C375 353.352 376.884 334.596 376.884 325.32C376.884 316.044 377.304 308.448 370.056 303.852L363.6 304.392L342.384 307.824Z" fill="white"/>
<path d="M334.8 277.284L331.308 284.208C331.257 284.308 331.229 284.418 331.225 284.531C331.221 284.643 331.242 284.755 331.285 284.859C331.328 284.962 331.394 285.055 331.476 285.132C331.559 285.208 331.657 285.265 331.764 285.3L335.904 286.692L334.8 277.284Z" fill="#F28F8F"/>
<path d="M339.6 265.68C339.6 265.68 334.296 268.536 334.296 284.88C334.296 293.892 334.92 299.64 339.6 299.28C344.28 298.92 357.768 297.156 357.768 297.156V265.68H339.6Z" fill="#FFA8A7"/>
<path d="M339.6 299.34C341.244 299.208 343.98 298.908 346.8 298.572V296.904C344.226 298.002 341.537 298.807 338.784 299.304C339.055 299.336 339.327 299.348 339.6 299.34Z" fill="#F28F8F"/>
<path d="M346.08 296.208V306.492H360.156V292.044L346.08 296.208Z" fill="#FFA8A7"/>
<path d="M346.08 302.58C346.08 302.58 351.144 304.38 355.2 303.672C359.256 302.964 360.156 300.492 360.156 300.492C360.156 300.492 361.476 300.384 363.6 304.38C362.773 305.873 361.59 307.138 360.156 308.064C358.722 308.989 357.081 309.546 355.38 309.684C350.966 309.967 346.541 309.333 342.384 307.824C342.384 307.824 344.4 302.064 346.08 302.58Z" fill="#8775D2"/>
<path opacity="0.4" d="M346.08 302.58C346.08 302.58 351.144 304.38 355.2 303.672C359.256 302.964 360.156 300.492 360.156 300.492C360.156 300.492 361.476 300.384 363.6 304.38C362.773 305.873 361.59 307.138 360.156 308.064C358.722 308.989 357.081 309.546 355.38 309.684C350.966 309.967 346.541 309.333 342.384 307.824C342.384 307.824 344.4 302.064 346.08 302.58Z" fill="white"/>
<path d="M314.676 333.108L310.896 338.916C310.896 338.916 301.716 334.824 295.296 332.34C291.558 330.951 288.078 328.948 285 326.412C285.229 323.911 285.63 321.43 286.2 318.984C286.944 316.464 287.196 314.364 285 315.48C282.804 316.596 281.28 320.928 281.148 321.48C281.148 321.48 268.248 308.508 266.64 308.796C265.032 309.084 265.44 311.028 268.872 315.024L272.34 319.032C272.34 319.032 264.432 323.58 265.716 328.548C267 333.516 277.428 335.748 277.428 335.748C277.428 335.748 307.944 359.196 314.7 354.948C321.456 350.7 331.02 338.568 331.02 338.568L314.676 333.108Z" fill="#FFA8A7"/>
<path d="M338.172 309.3C338.172 309.3 343.812 313.932 340.14 323.508C336.468 333.084 327.096 344.652 327.096 344.652C327.096 344.652 317.28 341.592 313.488 333.66L325.872 314.28C326.75 312.9 327.942 311.747 329.349 310.913C330.756 310.079 332.34 309.588 333.972 309.48C335.148 309.408 336.54 309.348 338.172 309.3Z" fill="#8775D2"/>
<path opacity="0.4" d="M338.172 309.3C338.172 309.3 343.812 313.932 340.14 323.508C336.468 333.084 327.096 344.652 327.096 344.652C327.096 344.652 317.28 341.592 313.488 333.66L325.872 314.28C326.75 312.9 327.942 311.747 329.349 310.913C330.756 310.079 332.34 309.588 333.972 309.48C335.148 309.408 336.54 309.348 338.172 309.3Z" fill="white"/>
<path d="M337.62 256.032C337.62 256.032 332.052 255.288 330.636 259.116C329.748 261.516 332.58 263.364 332.58 263.364C332.58 263.364 328.98 266.736 334.344 267.78C334.252 268.356 334.303 268.945 334.494 269.496C334.685 270.047 335.01 270.542 335.439 270.936C335.868 271.331 336.389 271.613 336.953 271.758C337.518 271.902 338.11 271.904 338.676 271.764C338.676 271.764 338.052 275.364 342.744 276.672C342.744 276.672 340.344 282.984 344.832 283.068H348.996L347.316 287.94C347.316 287.94 350.436 295.452 360.156 295.452C361.222 293.17 362.425 290.954 363.756 288.816C364.956 287.316 370.956 279.624 370.956 273.528C370.956 267.432 368.616 263.82 365.364 263.016C364.334 260.776 362.727 258.85 360.708 257.436C357.432 255.228 350.544 253.26 346.656 255.972C346.656 255.972 343.212 251.448 340.824 251.448C338.436 251.448 337.62 253.908 337.62 256.032Z" fill="#263238"/>
<path d="M344.832 283.068C344.832 283.068 344.424 276.672 349.812 276.672C355.2 276.672 353.928 287.94 347.316 287.94L344.832 283.068Z" fill="#FFA8A7"/>
</svg>
